Set in a future where the Capitol selects a boy and girl from the twelve districts to fight to the death on live television, Katniss Everdeen volunteers to take her younger sister's place for the latest match.

Format : AVI
Format/Info : Audio Video Interleave
File size : 1.37 GiB
Duration : 2h 7mn
Overall bit rate : 1 539 Kbps
Writing library : VirtualDub build 32842/release

Video
ID : 0
Format : MPEG-4 Visual
Format profile : Advanced Simple@L5
Format settings, BVOP : 2
Format settings, QPel : No
Format settings, GMC : No warppoints
Format settings, Matrix : Default (H.263)
Muxing mode : Packed bitstream
Codec ID : XVID
Codec ID/Hint : XviD
Duration : 2h 7mn
Bit rate : 1 401 Kbps
Width : 642 pixels
Height : 258 pixels
Display aspect ratio : 2.488
Frame rate : 25.000 fps
Color space : YUV
Chroma subsampling : 4:2:0
Bit depth : 8 bits
Scan type : Progressive
Compression mode : Lossy
Bits/(Pixel*Frame) : 0.338
Stream size : 1.25 GiB (91%)
Writing library : XviD 64

Audio
ID : 1
Format : MPEG Audio
Format version : Version 1
Format profile : Layer 3
Mode : Joint stereo
Mode extension : MS Stereo
Codec ID : 55
Codec ID/Hint : MP3
Duration : 2h 7mn
Bit rate mode : Constant
Bit rate : 128 Kbps
Channel(s) : 2 channels
Sampling rate : 44.1 KHz
Compression mode : Lossy
Stream size : 117 MiB (8%)
Alignment : Split accross interleaves
Interleave, duration : 40 ms (1.00 video frame)
Interleave, preload duration : 500 ms

Source Used

Video............... Golodnie.igry.2012.D.CAMRip.1400mb....Thanks

Audio .................INSPiRAL..................................Thanks

So so video but its watchable imo but check out the sample provided

Changed the rgb slightly and added more saturation ,slight sharpen ,slight levels adjusted

Enjoy
 
http://www.aedes.us/f/M3RtW.png 
http://www.aedes.us/f/kLrO.png 
http://www.aedes.us/f/I5AFg.png